HIERARCHY
ROOT Root
{
  OFFSET 0.0 0.0 0.0
  CHANNELS 6 Xposition Yposition Zposition Zrotation Yrotation Xrotation
  JOINT Hips
  {
    OFFSET 0.0 100.0 0.0
    CHANNELS 6 Xposition Yposition Zposition Zrotation Yrotation Xrotation
    JOINT Spine1
    {
      OFFSET 5.003913 -0.037094 -0.013727
      CHANNELS 3 Zrotation Yrotation Xrotation
      JOINT Spine2
      {
        OFFSET 7.125363 -1e-06 0.0
        CHANNELS 3 Zrotation Yrotation Xrotation
        JOINT Chest
        {
          OFFSET 7.594027 1e-06 0.0
          CHANNELS 3 Zrotation Yrotation Xrotation
          JOINT Neck1
          {
            OFFSET 26.313086 -0.460272 -0.181672
            CHANNELS 3 Zrotation Yrotation Xrotation
            JOINT Neck2
            {
              OFFSET 8.045911 0.0 0.0
              CHANNELS 3 Zrotation Yrotation Xrotation
              JOINT Head
              {
                OFFSET 6.432774 0.0 0.0
                CHANNELS 3 Zrotation Yrotation Xrotation
                JOINT HeadEnd
                {
                  OFFSET 16.169773 0.06451 0.00362
                  CHANNELS 3 Zrotation Yrotation Xrotation
                }
                JOINT Jaw
                {
                  OFFSET 0.108741 3.12938 0.002639
                  CHANNELS 3 Zrotation Yrotation Xrotation
                }
                JOINT LeftEye
                {
                  OFFSET 4.45173 8.166359 3.206392
                  CHANNELS 3 Zrotation Yrotation Xrotation
                }
                JOINT RightEye
                {
                  OFFSET 4.436895 8.135758 -3.222429
                  CHANNELS 3 Zrotation Yrotation Xrotation
                }
              }
            }
          }
          JOINT LeftShoulder
          {
            OFFSET 23.218927 5.195579 1.621656
            CHANNELS 3 Zrotation Yrotation Xrotation
            JOINT LeftArm
            {
              OFFSET 15.902118 2e-06 -2e-06
              CHANNELS 3 Zrotation Yrotation Xrotation
              JOINT LeftForeArm
              {
                OFFSET 28.739307 0.0 -1e-06
                CHANNELS 3 Zrotation Yrotation Xrotation
                JOINT LeftHand
                {
                  OFFSET 27.093981 -4e-06 0.0
                  CHANNELS 3 Zrotation Yrotation Xrotation
                  JOINT LeftHandThumb1
                  {
                    OFFSET 2.276781 3.380274 0.83384
                    CHANNELS 3 Zrotation Yrotation Xrotation
                    JOINT LeftHandThumb2
                    {
                      OFFSET 4.705309 -1e-06 -1e-06
                      CHANNELS 3 Zrotation Yrotation Xrotation
                      JOINT LeftHandThumb3
                      {
                        OFFSET 2.798515 0.0 3e-06
                        CHANNELS 3 Zrotation Yrotation Xrotation
                        JOINT LeftHandThumbEnd
                        {
                          OFFSET 3.180793 4e-06 -4e-06
                          CHANNELS 3 Zrotation Yrotation Xrotation
                        }
                      }
                    }
                  }
                  JOINT LeftHandIndex1
                  {
                    OFFSET 3.247786 2.352677 0.137192
                    CHANNELS 3 Zrotation Yrotation Xrotation
                    JOINT LeftHandIndex2
                    {
                      OFFSET 6.367095 1e-06 0.0
                      CHANNELS 3 Zrotation Yrotation Xrotation
                      JOINT LeftHandIndex3
                      {
                        OFFSET 3.662364 0.0 0.0
                        CHANNELS 3 Zrotation Yrotation Xrotation
                        JOINT LeftHandIndex4
                        {
                          OFFSET 2.329242 4e-06 -4e-06
                          CHANNELS 3 Zrotation Yrotation Xrotation
                          JOINT LeftHandIndexEnd
                          {
                            OFFSET 2.767823 1e-06 0.0
                            CHANNELS 3 Zrotation Yrotation Xrotation
                          }
                        }
                      }
                    }
                  }
                  JOINT LeftHandMiddle1
                  {
                    OFFSET 3.163612 0.945023 -0.406112
                    CHANNELS 3 Zrotation Yrotation Xrotation
                    JOINT LeftHandMiddle2
                    {
                      OFFSET 6.276789 3e-06 0.0
                      CHANNELS 3 Zrotation Yrotation Xrotation
                      JOINT LeftHandMiddle3
                      {
                        OFFSET 4.35652 -1e-06 4e-06
                        CHANNELS 3 Zrotation Yrotation Xrotation
                        JOINT LeftHandMiddle4
                        {
                          OFFSET 2.996877 0.0 8e-06
                          CHANNELS 3 Zrotation Yrotation Xrotation
                          JOINT LeftHandMiddleEnd
                          {
                            OFFSET 2.323256 3e-06 -4e-06
                            CHANNELS 3 Zrotation Yrotation Xrotation
                          }
                        }
                      }
                    }
                  }
                  JOINT LeftHandRing1
                  {
                    OFFSET 2.882606 -0.309162 0.107445
                    CHANNELS 3 Zrotation Yrotation Xrotation
                    JOINT LeftHandRing2
                    {
                      OFFSET 6.033198 0.0 4e-06
                      CHANNELS 3 Zrotation Yrotation Xrotation
                      JOINT LeftHandRing3
                      {
                        OFFSET 4.350578 3e-06 0.0
                        CHANNELS 3 Zrotation Yrotation Xrotation
                        JOINT LeftHandRing4
                        {
                          OFFSET 2.651321 2e-06 -7e-06
                          CHANNELS 3 Zrotation Yrotation Xrotation
                          JOINT LeftHandRingEnd
                          {
                            OFFSET 1.937663 1e-06 -4e-06
                            CHANNELS 3 Zrotation Yrotation Xrotation
                          }
                        }
                      }
                    }
                  }
                  JOINT LeftHandPinky1
                  {
                    OFFSET 2.865315 -1.525436 0.575687
                    CHANNELS 3 Zrotation Yrotation Xrotation
                    JOINT LeftHandPinky2
                    {
                      OFFSET 5.54936 1e-06 -8e-06
                      CHANNELS 3 Zrotation Yrotation Xrotation
                      JOINT LeftHandPinky3
                      {
                        OFFSET 3.070974 0.0 -4e-06
                        CHANNELS 3 Zrotation Yrotation Xrotation
                        JOINT LeftHandPinky4
                        {
                          OFFSET 1.549672 1e-06 0.0
                          CHANNELS 3 Zrotation Yrotation Xrotation
                          JOINT LeftHandPinkyEnd
                          {
                            OFFSET 1.952123 0.0 0.0
                            CHANNELS 3 Zrotation Yrotation Xrotation
                          }
                        }
                      }
                    }
                  }
                }
              }
            }
          }
          JOINT RightShoulder
          {
            OFFSET 23.161716 5.296122 -1.380114
            CHANNELS 3 Zrotation Yrotation Xrotation
            JOINT RightArm
            {
              OFFSET -16.027195 -2e-06 1.1e-05
              CHANNELS 3 Zrotation Yrotation Xrotation
              JOINT RightForeArm
              {
                OFFSET -28.736639 4e-06 2e-06
                CHANNELS 3 Zrotation Yrotation Xrotation
                JOINT RightHand
                {
                  OFFSET -27.133619 6e-06 0.0
                  CHANNELS 3 Zrotation Yrotation Xrotation
                  JOINT RightHandThumb1
                  {
                    OFFSET -2.274328 -3.351035 -0.83067
                    CHANNELS 3 Zrotation Yrotation Xrotation
                    JOINT RightHandThumb2
                    {
                      OFFSET -4.703594 -3e-06 2e-06
                      CHANNELS 3 Zrotation Yrotation Xrotation
                      JOINT RightHandThumb3
                      {
                        OFFSET -2.794935 -4e-06 -3e-06
                        CHANNELS 3 Zrotation Yrotation Xrotation
                        JOINT RightHandThumbEnd
                        {
                          OFFSET -3.183852 4e-06 1e-06
                          CHANNELS 3 Zrotation Yrotation Xrotation
                        }
                      }
                    }
                  }
                  JOINT RightHandIndex1
                  {
                    OFFSET -3.253496 -2.33755 -0.127667
                    CHANNELS 3 Zrotation Yrotation Xrotation
                    JOINT RightHandIndex2
                    {
                      OFFSET -6.344434 0.0 0.0
                      CHANNELS 3 Zrotation Yrotation Xrotation
                      JOINT RightHandIndex3
                      {
                        OFFSET -3.654871 0.0 -8e-06
                        CHANNELS 3 Zrotation Yrotation Xrotation
                        JOINT RightHandIndex4
                        {
                          OFFSET -2.327586 -1e-06 0.0
                          CHANNELS 3 Zrotation Yrotation Xrotation
                          JOINT RightHandIndexEnd
                          {
                            OFFSET -2.770001 3e-06 8e-06
                            CHANNELS 3 Zrotation Yrotation Xrotation
                          }
                        }
                      }
                    }
                  }
                  JOINT RightHandMiddle1
                  {
                    OFFSET -3.168223 -0.944764 0.411762
                    CHANNELS 3 Zrotation Yrotation Xrotation
                    JOINT RightHandMiddle2
                    {
                      OFFSET -6.266691 -1e-06 -4e-06
                      CHANNELS 3 Zrotation Yrotation Xrotation
                      JOINT RightHandMiddle3
                      {
                        OFFSET -4.348901 0.0 0.0
                        CHANNELS 3 Zrotation Yrotation Xrotation
                        JOINT RightHandMiddle4
                        {
                          OFFSET -3.00024 2e-06 -4e-06
                          CHANNELS 3 Zrotation Yrotation Xrotation
                          JOINT RightHandMiddleEnd
                          {
                            OFFSET -2.321477 -4e-06 -4e-06
                            CHANNELS 3 Zrotation Yrotation Xrotation
                          }
                        }
                      }
                    }
                  }
                  JOINT RightHandRing1
                  {
                    OFFSET -2.885654 0.293261 -0.119232
                    CHANNELS 3 Zrotation Yrotation Xrotation
                    JOINT RightHandRing2
                    {
                      OFFSET -6.032835 -1e-06 -4e-06
                      CHANNELS 3 Zrotation Yrotation Xrotation
                      JOINT RightHandRing3
                      {
                        OFFSET -4.33881 0.0 -4e-06
                        CHANNELS 3 Zrotation Yrotation Xrotation
                        JOINT RightHandRing4
                        {
                          OFFSET -2.654903 -4e-06 -4e-06
                          CHANNELS 3 Zrotation Yrotation Xrotation
                          JOINT RightHandRingEnd
                          {
                            OFFSET -1.935122 0.0 4e-06
                            CHANNELS 3 Zrotation Yrotation Xrotation
                          }
                        }
                      }
                    }
                  }
                  JOINT RightHandPinky1
                  {
                    OFFSET -2.866241 1.503904 -0.60527
                    CHANNELS 3 Zrotation Yrotation Xrotation
                    JOINT RightHandPinky2
                    {
                      OFFSET -5.553177 -2e-06 0.0
                      CHANNELS 3 Zrotation Yrotation Xrotation
                      JOINT RightHandPinky3
                      {
                        OFFSET -3.062664 -1e-06 -4e-06
                        CHANNELS 3 Zrotation Yrotation Xrotation
                        JOINT RightHandPinky4
                        {
                          OFFSET -1.546529 2e-06 4e-06
                          CHANNELS 3 Zrotation Yrotation Xrotation
                          JOINT RightHandPinkyEnd
                          {
                            OFFSET -1.952341 0.0 -4e-06
                            CHANNELS 3 Zrotation Yrotation Xrotation
                          }
                        }
                      }
                    }
                  }
                }
              }
            }
          }
        }
      }
    }
    JOINT LeftLeg
    {
      OFFSET -8.443107 2.567604 10.043214
      CHANNELS 3 Zrotation Yrotation Xrotation
      JOINT LeftShin
      {
        OFFSET 43.229198 1e-06 -1e-06
        CHANNELS 3 Zrotation Yrotation Xrotation
        JOINT LeftFoot
        {
          OFFSET 42.298611 1e-06 1e-06
          CHANNELS 3 Zrotation Yrotation Xrotation
          JOINT LeftToeBase
          {
            OFFSET 14.165858 1e-06 0.0
            CHANNELS 3 Zrotation Yrotation Xrotation
            JOINT LeftToeEnd
            {
              OFFSET 6.7141 -0.234461 0.0
              CHANNELS 3 Zrotation Yrotation Xrotation
            }
          }
        }
      }
    }
    JOINT RightLeg
    {
      OFFSET -8.303923 2.592729 -10.047278
      CHANNELS 3 Zrotation Yrotation Xrotation
      JOINT RightShin
      {
        OFFSET -43.369682 0.0 1e-06
        CHANNELS 3 Zrotation Yrotation Xrotation
        JOINT RightFoot
        {
          OFFSET -42.260784 4e-06 2e-06
          CHANNELS 3 Zrotation Yrotation Xrotation
          JOINT RightToeBase
          {
            OFFSET -14.222245 -2e-06 -1e-06
            CHANNELS 3 Zrotation Yrotation Xrotation
            JOINT RightToeEnd
            {
              OFFSET -6.660062 0.232574 -2e-06
              CHANNELS 3 Zrotation Yrotation Xrotation
            }
          }
        }
      }
    }
  }
}
MOTION
Frames: 4
Frame Time: 0.03333333333333333
0.0 0.0 0.0 0.0 -0.0 0.0 -9.903493 10.982823 115.760529 -178.376495 -79.405304 -0.923792 0.350151 -0.894237 -1.43803 -10.851419 -0.629928 -0.544333 12.571412 -2.460984 -2.228778 7.162389 -2.00819 2.06338 -1.870396 0.517276 4.131557 -13.89883 1.222018 6.558123 5e-06 0.0 0.0 -0.22754 0.018661 -0.093851 -0.54538 0.253887 -0.194122 -0.46882 -0.214794 0.01172 -34.899422 -70.214455 46.474129 -35.914173 -77.469948 0.608119 154.238541 2.239423 -1.403879 23.638596 34.387638 31.383747 17.636625 -26.322725 52.411182 -19.466652 -14.395594 29.410381 -0.0 -8.774819 -2e-06 15.901035 -18.032393 5.82749 -0.609776 -1.795653 -3.889327 -4.807087 -11.046809 -2.937848 4e-06 -20.976015 -2e-06 -5.019969 -25.033556 -4.031881 8e-06 1e-06 1e-06 -10.634531 -5.686969 -3.565587 10.573271 -17.922945 -3.1139 2e-06 -13.821205 0.0 -0.501776 -31.181494 -4.027016 -11.019353 -58.949295 7.135958 -13.982711 -7.150197 -2.875043 13.772725 -8.40149 -3.218239 0.347734 -34.211544 0.771654 -0.963028 -17.733366 2.621018 -1e-06 -3e-06 0.0 -17.346413 -20.095215 -4.201783 21.757551 -1.638373 3.866427 0.0 -6.338822 2e-06 -1.697587 -22.591742 -6.194007 -1e-06 -7e-06 -1e-06 137.813583 -67.867523 57.962559 -17.984432 -69.697502 20.416904 141.161469 5.006647 -0.500033 56.268394 34.781822 69.391869 22.182108 -20.375887 49.933304 -16.701815 -16.743526 28.47653 -4e-06 -12.6906 -0.0 15.466474 -18.61005 2.666215 -0.105919 -1.513856 -4.275882 -5.039041 -5.612871 -2.953555 4e-06 -11.02052 -2e-06 -6.111296 -15.89533 -3.840472 -0.0 0.0 1e-06 -10.283368 -5.680288 -4.341838 11.028296 -11.302404 -2.372634 -1.384269 -14.238581 -6.320122 -0.62544 -26.924194 -3.827601 -3.833397 -49.667416 -5.007823 -13.708522 -7.363476 -3.720938 18.141148 -14.052738 -3.242676 6e-06 -18.78727 -3e-06 -0.429711 -8.456042 2.555502 0.0 2e-06 0.0 -15.923532 -20.094482 -5.473582 30.419205 -7.190823 1.735921 2e-06 -8.162924 -1e-06 -1.8619 -22.861467 -6.167943 -0.0 -3e-06 -0.0 178.837204 -10.3963 -111.502113 2.313666 -8.433412 81.041832 -47.213917 34.586487 6.438553 -8.375269 0.859353 2.390792 -0.999996 -0.0 0.0 0.45427 -9.589043 -122.75045 -0.944177 -9.742241 98.382545 -77.978065 20.849339 4.73856 -9.823779 0.678066 1.277786 -1.000002 -0.0 0.0 
0.0 0.0 0.0 0.0 -0.0 0.0 -9.929632 10.96316 115.762077 -178.551331 -79.417938 -0.776577 0.314933 -0.873015 -1.437204 -10.894025 -0.635105 -0.541884 12.583349 -2.402936 -2.152361 7.209419 -2.006206 2.053601 -1.880762 0.470831 4.151992 -13.840504 1.311404 6.717693 6e-06 -0.0 0.0 -0.232342 -0.014182 -0.095483 -0.546502 0.20955 -0.186986 -0.471744 -0.235235 0.001181 -34.879124 -70.126884 46.462971 -35.815018 -77.474419 0.705953 153.985367 2.150066 -1.400557 23.930258 34.550694 31.985695 17.636625 -26.322731 52.41119 -19.46666 -14.395596 29.410389 -1e-06 -8.774821 -2e-06 15.914101 -18.037001 5.82282 -0.609776 -1.795653 -3.889329 -4.807087 -11.046809 -2.93785 5e-06 -20.976015 -1e-06 -5.019969 -25.033556 -4.03188 6e-06 1e-06 0.0 -10.634531 -5.686969 -3.565588 10.573275 -17.922947 -3.113901 2e-06 -13.821209 1e-06 -0.501776 -31.181501 -4.027014 -11.012263 -58.982243 7.130008 -13.982711 -7.150197 -2.875043 13.772727 -8.401491 -3.21824 0.347736 -34.211544 0.771654 -0.963029 -17.733366 2.621021 -1e-06 -1e-06 -0.0 -17.346413 -20.095217 -4.201784 21.757555 -1.638374 3.866427 1e-06 -6.338824 1e-06 -1.697588 -22.591749 -6.194005 -1e-06 -4e-06 -2e-06 138.073837 -67.76104 57.707489 -17.869528 -69.806816 20.246597 141.141403 4.914956 -0.407684 56.261116 34.832184 69.778496 22.182112 -20.375898 49.933331 -16.701817 -16.74353 28.476536 -2e-06 -12.690603 -1e-06 15.521848 -18.612179 2.670605 -0.105919 -1.513856 -4.275882 -5.039041 -5.612872 -2.953556 3e-06 -11.020525 -1e-06 -6.111298 -15.895332 -3.840472 -0.0 0.0 0.0 -10.283371 -5.680289 -4.341839 11.028295 -11.302404 -2.372634 -1.38427 -14.23858 -6.320123 -0.625439 -26.924192 -3.827603 -3.834153 -49.730186 -5.002961 -13.708525 -7.363476 -3.72094 18.141151 -14.052742 -3.242675 5e-06 -18.787271 -2e-06 -0.429713 -8.456047 2.555505 1e-06 3e-06 0.0 -15.923536 -20.094484 -5.473584 30.419218 -7.190826 1.735924 2e-06 -8.162927 0.0 -1.861904 -22.861473 -6.167942 0.0 -3e-06 -0.0 178.860733 -10.394606 -111.970322 2.181893 -8.448318 81.784271 -47.115101 34.422455 6.560995 -8.430628 0.854234 2.375546 -0.999999 0.0 -0.0 0.450339 -9.579669 -122.645981 -0.871805 -9.771302 98.233879 -77.402153 20.73938 4.957553 -9.817075 0.690104 1.271778 -1.000002 -0.0 -0.0 
0.0 0.0 0.0 0.0 -0.0 0.0 -9.955067 10.946953 115.774414 -178.770706 -79.421486 -0.588352 0.267228 -0.837096 -1.42168 -10.934736 -0.653662 -0.548686 12.59802 -2.360469 -2.072463 7.150511 -1.948404 2.041058 -1.892821 0.441128 4.191657 -13.763345 1.340567 6.849462 6e-06 -0.0 0.0 -0.237123 -0.033823 -0.098728 -0.549458 0.186433 -0.185606 -0.474858 -0.250081 -0.006747 -34.861721 -70.056709 46.393654 -35.620132 -77.426544 0.778373 153.730911 2.065371 -1.34673 24.210451 34.653576 32.507019 17.636627 -26.322725 52.411175 -19.466654 -14.395592 29.410378 -0.0 -8.774819 -2e-06 15.9391 -18.033081 5.795077 -0.609776 -1.795653 -3.889324 -4.807087 -11.046809 -2.937848 5e-06 -20.976013 1e-06 -5.019969 -25.033556 -4.031879 6e-06 0.0 1e-06 -10.634531 -5.686969 -3.565587 10.573271 -17.922947 -3.113898 2e-06 -13.821209 1e-06 -0.501778 -31.181501 -4.027013 -11.009887 -58.995136 7.118114 -13.982711 -7.150196 -2.875041 13.772726 -8.401491 -3.218238 0.347733 -34.211544 0.771657 -0.96303 -17.733366 2.62102 -1e-06 -3e-06 -0.0 -17.346413 -20.095211 -4.20178 21.757555 -1.638375 3.866429 1e-06 -6.338822 1e-06 -1.697591 -22.591742 -6.194001 1e-06 -7e-06 -3e-06 138.236801 -67.683632 57.529736 -17.638344 -69.947235 19.885324 141.107254 4.805705 -0.362436 56.152172 34.824245 70.051247 22.182121 -20.375896 49.933327 -16.701818 -16.74353 28.476536 -3e-06 -12.690603 -1e-06 15.613799 -18.613619 2.666215 -0.10592 -1.513857 -4.275882 -5.03904 -5.612873 -2.953557 4e-06 -11.020525 -2e-06 -6.111299 -15.895338 -3.840473 -0.0 0.0 1e-06 -10.283373 -5.680289 -4.341839 11.028297 -11.302408 -2.372635 -1.384269 -14.238584 -6.320124 -0.625438 -26.924202 -3.827603 -3.879871 -49.804588 -4.958239 -13.708527 -7.363478 -3.720939 18.141153 -14.052742 -3.242676 7e-06 -18.787271 -4e-06 -0.429711 -8.456041 2.555504 0.0 1e-06 0.0 -15.923539 -20.094492 -5.473586 30.419222 -7.190827 1.735924 3e-06 -8.162928 -1e-06 -1.861902 -22.861483 -6.167943 0.0 -2e-06 -1e-06 178.857651 -10.388632 -112.313919 2.091016 -8.522446 82.323608 -46.928185 34.2327 6.7012 -8.429591 0.853759 2.364632 -0.999995 -0.0 0.0 0.453741 -9.585854 -122.58754 -0.77013 -9.809973 98.068588 -76.769783 20.658756 5.208344 -9.799765 0.698813 1.267541 -1.000002 0.0 0.0 
0.0 0.0 0.0 0.0 -0.0 0.0 -9.984015 10.915875 115.781487 -179.074966 -79.415558 -0.306106 0.222945 -0.800637 -1.406083 -10.971693 -0.666079 -0.563767 12.625015 -2.349524 -1.998901 7.020642 -1.82251 2.040374 -1.900554 0.429635 4.268775 -13.661485 1.279365 6.962597 6e-06 -0.0 1e-06 -0.240607 -0.037592 -0.102632 -0.542331 0.187238 -0.1882 -0.469552 -0.256579 -0.012535 -34.868599 -70.026787 46.309902 -35.14209 -77.322128 0.535139 153.486237 1.983794 -1.268024 24.39048 34.717136 32.746731 17.636633 -26.322735 52.411198 -19.466661 -14.395602 29.410389 -1e-06 -8.774822 -2e-06 15.973433 -18.023228 5.743253 -0.609776 -1.795653 -3.889328 -4.807089 -11.04681 -2.937849 5e-06 -20.976015 1e-06 -5.01997 -25.033554 -4.031881 7e-06 1e-06 1e-06 -10.634533 -5.686969 -3.565587 10.573276 -17.922947 -3.1139 3e-06 -13.821208 1e-06 -0.501779 -31.181498 -4.027013 -10.989416 -59.012432 7.087917 -13.982715 -7.150197 -2.875041 13.772731 -8.401491 -3.218239 0.347733 -34.211544 0.771658 -0.963028 -17.73337 2.62102 -1e-06 -1e-06 0.0 -17.346416 -20.095215 -4.201779 21.757563 -1.638375 3.866426 1e-06 -6.338823 2e-06 -1.69759 -22.591745 -6.194005 -1e-06 -6e-06 -3e-06 138.245422 -67.639641 57.495564 -17.288469 -70.096931 19.406696 141.066696 4.700987 -0.343972 56.065708 34.775623 70.204094 22.182121 -20.375891 49.933308 -16.701813 -16.743528 28.476528 -3e-06 -12.6906 -3e-06 15.698186 -18.608967 2.664317 -0.105919 -1.513856 -4.27588 -5.039039 -5.61287 -2.953557 4e-06 -11.02052 -1e-06 -6.111297 -15.895334 -3.840471 -1e-06 -1e-06 -0.0 -10.283369 -5.680288 -4.341839 11.028293 -11.302404 -2.372632 -1.384269 -14.238578 -6.320121 -0.625436 -26.924187 -3.827602 -3.954408 -49.887596 -4.885299 -13.708524 -7.363475 -3.720939 18.141148 -14.052739 -3.242672 7e-06 -18.78727 -3e-06 -0.429711 -8.456042 2.555504 0.0 2e-06 0.0 -15.923532 -20.094482 -5.473585 30.41921 -7.190828 1.735928 3e-06 -8.162927 -1e-06 -1.861902 -22.861469 -6.167941 -1e-06 -3e-06 -0.0 178.891174 -10.351746 -112.595039 1.995687 -8.551723 82.750816 -46.661346 34.043911 6.757812 -8.346689 0.856871 2.357201 -0.999998 -0.0 0.0 0.496581 -9.60027 -122.573677 -0.638606 -9.825187 97.924225 -76.010963 20.5574 5.520651 -9.76338 0.701975 1.263987 -1.000002 0.0 -0.0 
